<svg width="27" height="27" viewBox="0 0 27 27" fill="none" xmlns="http://www.w3.org/2000/svg">
<path d="M18.4987 13.4461L10.8109 21.1339C10.5942 21.3506 10.3004 21.4723 9.99404 21.4723C9.68767 21.4723 9.39385 21.3506 9.17721 21.1339C8.96057 20.9173 8.83887 20.6235 8.83887 20.3171C8.83887 20.0107 8.96057 19.7169 9.17721 19.5003L16.0492 12.6302L9.17913 5.75824C9.07186 5.65098 8.98677 5.52363 8.92872 5.38348C8.87067 5.24332 8.84079 5.09311 8.84079 4.94141C8.84079 4.78971 8.87067 4.6395 8.92872 4.49934C8.98677 4.35919 9.07186 4.23184 9.17913 4.12458C9.2864 4.01731 9.41375 3.93222 9.5539 3.87416C9.69405 3.81611 9.84427 3.78623 9.99597 3.78623C10.1477 3.78623 10.2979 3.81611 10.438 3.87416C10.5782 3.93222 10.7055 4.01731 10.8128 4.12458L18.5007 11.8124C18.608 11.9197 18.6932 12.0471 18.7512 12.1873C18.8093 12.3276 18.839 12.4779 18.8389 12.6297C18.8387 12.7814 18.8086 12.9317 18.7502 13.0718C18.6918 13.2119 18.6064 13.3391 18.4987 13.4461Z" fill="#7B68EE"/>
</svg>
